<?xml version="1.0" encoding="iso-8859-1"?>
<!-- Generator: Adobe Illustrator 18.0.0, SVG Export Plug-In . SVG Version: 6.00 Build 0)  -->
<!DOCTYPE svg PUBLIC "-//W3C//DTD SVG 1.1//EN" "http://www.w3.org/Graphics/SVG/1.1/DTD/svg11.dtd">
<svg version="1.1" id="Capa_1" xmlns="http://www.w3.org/2000/svg" xmlns:xlink="http://www.w3.org/1999/xlink" x="0px" y="0px"
	 viewBox="0 0 445.479 445.479" style="enable-background:new 0 0 445.479 445.479;" xml:space="preserve"
	 fill="#CD138F">
>
<g>
	<path d="M364.479,0H81C57.426,0,38.248,19.179,38.248,42.752v359.975c0,23.574,19.178,42.752,42.752,42.752h283.479
		c23.573,0,42.752-19.178,42.752-42.752V42.752C407.231,19.179,388.052,0,364.479,0z M168.383,361.065l-41.618-41.618h41.618
		V361.065z M178.383,299.447h-65.76V70.276h30.371V85.86c0,5.523,4.477,10,10,10h139.493c5.523,0,10-4.477,10-10V70.276h30.377
		v304.93h-144.48v-65.76C188.383,303.924,183.906,299.447,178.383,299.447z M282.486,75.86H162.993V30h119.493V75.86z
		 M377.231,402.727c0,7.031-5.721,12.752-12.752,12.752H81c-7.031,0-12.752-5.721-12.752-12.752V42.752
		C68.248,35.721,73.969,30,81,30h61.993v20.276h-40.371c-5.523,0-10,4.477-10,10v249.17c0,2.652,1.054,5.196,2.929,7.071
		l75.76,75.76c1.875,1.875,4.419,2.929,7.071,2.929h164.48c5.523,0,10-4.477,10-10V60.276c0-5.523-4.477-10-10-10h-40.377V30h61.993
		c7.031,0,12.752,5.721,12.752,12.752V402.727z"/>
	<path d="M143.997,149.494h157.492c5.523,0,10-4.477,10-10s-4.477-10-10-10H143.997c-5.523,0-10,4.477-10,10
		S138.474,149.494,143.997,149.494z"/>
	<path d="M143.997,201.241h157.492c5.523,0,10-4.477,10-10s-4.477-10-10-10H143.997c-5.523,0-10,4.477-10,10
		S138.474,201.241,143.997,201.241z"/>
	<path d="M311.489,242.989c0-5.523-4.477-10-10-10H143.997c-5.523,0-10,4.477-10,10s4.477,10,10,10h157.492
		C307.012,252.989,311.489,248.511,311.489,242.989z"/>
</g>
<g>
</g>
<g>
</g>
<g>
</g>
<g>
</g>
<g>
</g>
<g>
</g>
<g>
</g>
<g>
</g>
<g>
</g>
<g>
</g>
<g>
</g>
<g>
</g>
<g>
</g>
<g>
</g>
<g>
</g>
</svg>